<?xml version="1.0" encoding="UTF-8"?>
<svg version="1.1" xmlns="http://www.w3.org/2000/svg" width="64" height="64">
<path d="M0 0 C4.70727501 3.34940722 7.61605896 6.72986811 9.25 12.3125 C9.375 15.625 9.375 15.625 9.25 18.3125 C10.343125 18.250625 11.43625 18.18875 12.5625 18.125 C16.25 18.3125 16.25 18.3125 17.95556641 19.56640625 C19.53140186 21.69208998 19.63608806 22.81236194 19.6484375 25.4375 C19.65230469 26.22640625 19.65617187 27.0153125 19.66015625 27.828125 C19.64855469 28.64796875 19.63695313 29.4678125 19.625 30.3125 C19.63660156 31.13234375 19.64820312 31.9521875 19.66015625 32.796875 C19.65628906 33.58578125 19.65242188 34.3746875 19.6484375 35.1875 C19.64505371 35.90679687 19.64166992 36.62609375 19.63818359 37.3671875 C19.11970051 39.96547256 18.4352804 40.81562081 16.25 42.3125 C13.55078125 42.60546875 13.55078125 42.60546875 10.5625 42.5 C9.56863281 42.47292969 8.57476562 42.44585937 7.55078125 42.41796875 C6.79152344 42.38316406 6.03226563 42.34835938 5.25 42.3125 C5.23541748 41.4654248 5.22083496 40.61834961 5.20581055 39.74560547 C5.14448823 36.58068066 5.07028648 33.41638496 4.98754883 30.25195312 C4.95444614 28.8865075 4.92636914 27.52092987 4.90356445 26.15527344 C4.86975009 24.18396776 4.81591714 22.21303809 4.76171875 20.2421875 C4.73553467 19.05866699 4.70935059 17.87514648 4.68237305 16.65576172 C4.09112953 12.08405721 2.69229878 8.61958327 -0.75 5.5 C-4.67460598 3.1697652 -8.08197145 3.11975915 -12.5625 3.0625 C-13.76519531 3.03671875 -14.96789062 3.0109375 -16.20703125 2.984375 C-20.92819313 3.42161601 -24.35443813 4.77256966 -27.5625 8.3125 C-30.77978923 13.73109239 -30.01018651 19.98368772 -30.04516602 26.08154297 C-30.05669338 27.48203631 -30.0771577 28.88248545 -30.10668945 30.28271484 C-30.14945674 32.31117458 -30.16554464 34.3383324 -30.17578125 36.3671875 C-30.19036377 37.57874512 -30.20494629 38.79030273 -30.2199707 40.03857422 C-29.65828114 43.95143505 -28.53964911 45.5594621 -25.75 48.3125 C-22.62866256 49.66022903 -22.62866256 49.66022903 -19.75 50.3125 C-19.09 48.9925 -18.43 47.6725 -17.75 46.3125 C-16.14667209 46.23128076 -14.54215974 46.17320866 -12.9375 46.125 C-11.59751953 46.07279297 -11.59751953 46.07279297 -10.23046875 46.01953125 C-7.75 46.3125 -7.75 46.3125 -5.94921875 47.63671875 C-4.09252689 50.23124907 -4.36324448 52.21845582 -4.75 55.3125 C-5.94921875 56.98828125 -5.94921875 56.98828125 -7.75 58.3125 C-10.23046875 58.60546875 -10.23046875 58.60546875 -12.9375 58.5 C-13.83855469 58.47292969 -14.73960938 58.44585937 -15.66796875 58.41796875 C-16.35503906 58.38316406 -17.04210937 58.34835938 -17.75 58.3125 C-18.01296875 57.66152344 -18.2759375 57.01054688 -18.546875 56.33984375 C-18.94390625 55.67082031 -19.3409375 55.00179687 -19.75 54.3125 C-20.8225 54.168125 -21.895 54.02375 -23 53.875 C-27.68798927 53.17180161 -29.50106103 51.71255241 -32.75 48.3125 C-34.125 45 -34.125 45 -34.75 42.3125 C-35.843125 42.374375 -36.93625 42.43625 -38.0625 42.5 C-41.75 42.3125 -41.75 42.3125 -43.45556641 41.05859375 C-45.03140186 38.93291002 -45.13608806 37.81263806 -45.1484375 35.1875 C-45.15230469 34.39859375 -45.15617187 33.6096875 -45.16015625 32.796875 C-45.14855469 31.97703125 -45.13695312 31.1571875 -45.125 30.3125 C-45.13660156 29.49265625 -45.14820313 28.6728125 -45.16015625 27.828125 C-45.15435547 26.64476562 -45.15435547 26.64476562 -45.1484375 25.4375 C-45.14505371 24.71820312 -45.14166992 23.99890625 -45.13818359 23.2578125 C-44.63263268 20.72433474 -43.81753108 19.83251712 -41.75 18.3125 C-38.0625 18.125 -38.0625 18.125 -34.75 18.3125 C-34.72421875 17.73242188 -34.6984375 17.15234375 -34.671875 16.5546875 C-34.27495246 11.0879816 -33.43565074 7.59582383 -29.75 3.3125 C-21.85831077 -2.64653064 -9.256284 -4.35589835 0 0 Z M-39.75 22.3125 C-41.10860893 23.44562756 -41.10860893 23.44562756 -40.8828125 26.4375 C-40.88023438 27.71625 -40.87765625 28.995 -40.875 30.3125 C-40.87757812 31.59125 -40.88015625 32.87 -40.8828125 34.1875 C-41.10860893 37.17937244 -41.10860893 37.17937244 -39.75 38.3125 C-38.1 38.3125 -36.45 38.3125 -34.75 38.3125 C-34.75 33.0325 -34.75 27.7525 -34.75 22.3125 C-36.4 22.3125 -38.05 22.3125 -39.75 22.3125 Z M9.25 22.3125 C9.25 27.5925 9.25 32.8725 9.25 38.3125 C10.9 38.3125 12.55 38.3125 14.25 38.3125 C15.60860893 37.17937244 15.60860893 37.17937244 15.3828125 34.1875 C15.38023438 32.90875 15.37765625 31.63 15.375 30.3125 C15.37886719 28.394375 15.37886719 28.394375 15.3828125 26.4375 C15.60860893 23.44562756 15.60860893 23.44562756 14.25 22.3125 C12.6 22.3125 10.95 22.3125 9.25 22.3125 Z M-15.75 50.3125 C-15.75 51.6325 -15.75 52.9525 -15.75 54.3125 C-13.77 54.3125 -11.79 54.3125 -9.75 54.3125 C-9.75 52.9925 -9.75 51.6725 -9.75 50.3125 C-11.73 50.3125 -13.71 50.3125 -15.75 50.3125 Z " fill="#000000" transform="translate(44.75,3.6875)"/>
<path d="M0 0 C1.98 0 3.96 0 6 0 C6.84039886 2.58122508 7.67250556 5.16463901 8.5 7.75 C8.73847656 8.47960938 8.97695313 9.20921875 9.22265625 9.9609375 C9.44824219 10.66992188 9.67382812 11.37890625 9.90625 12.109375 C10.11572266 12.75874023 10.32519531 13.40810547 10.54101562 14.07714844 C11 16 11 16 11 20 C9.68 20 8.36 20 7 20 C6.67 19.01 6.34 18.02 6 17 C4.02 17 2.04 17 0 17 C-0.33 17.99 -0.66 18.98 -1 20 C-2.32 20 -3.64 20 -5 20 C-4.35346673 13.04976736 -2.13972752 6.61822697 0 0 Z M2 7 C1.67 8.65 1.34 10.3 1 12 C2.32 11.67 3.64 11.34 5 11 C4.67 9.68 4.34 8.36 4 7 C3.34 7 2.68 7 2 7 Z " fill="#000000" transform="translate(26,20)"/>
<path d="M0 0 C1.32 0 2.64 0 4 0 C4 6.6 4 13.2 4 20 C2.68 20 1.36 20 0 20 C0 13.4 0 6.8 0 0 Z " fill="#000000" transform="translate(39,20)"/>
</svg>
